PathFileType	4	(X/Y/Z)	C:\Users\°ÂÌØÂü\Desktop\20210112\bx_y_0_501-Unnamed.trc
DataRate	CameraRate	NumFrames	NumMarkers	Units	OrigDataRate	OrigDataStartFrame	OrigNumFrames
50.00	50.00	       7	0	mm	50.00	227	       603
Frame#	Time	
		

227	4.520	-421.09216	-72.55958	1364.76794	-763.66809	285.17767	874.83496				-784.36487	-55.48653	727.40717	-692.84479	-6.24933	801.32501	-696.09027	222.01031	812.52466	-805.46057	252.35049	630.48260	-752.93390	146.62143	570.76971	-795.59528	248.45801	570.72339	-722.57428	20.15545	525.13495	-822.76306	259.79477	492.91037	-733.27991	209.48235	536.19202	-770.45038	-67.10058	862.23169	-663.62817	-67.55656	162.04930	-717.29010	155.36848	219.98691	-775.29681	224.71280	202.13997	-621.90790	-77.68972	158.59215	-882.28711	296.43845	144.90254	-676.92035	54.86058	160.47401	-604.38013	20.70833	166.60748	-677.31311	175.52327	160.54187	-596.00165	222.40942	173.51276	-667.55737	300.56247	158.71294	-629.58044	306.89127	161.57568	-560.51984	258.29663	165.75517	-528.00800	304.06058	146.46793	-196.53154	103.30170	1556.38403	-440.59680	280.78485	1385.25146	-517.93823	-72.70086	143.20541	-798.82953	175.29729	182.17642	-770.63922	-8.10770	205.86133	-797.19824	52.63446	174.79106	-891.93024	93.56528	1086.18958	-812.53363	-35.35923	481.30304	-560.29681	-36.75375	163.51297	-876.04626	-78.37483	141.07983				-780.04871	-28.07967	609.90430	-779.96570	-23.70201	564.21002	-723.27606	75.19585	219.38058				-788.54413	279.33340	710.80188	-752.38184	80.36048	568.27203	
228	4.540	-418.21204	-73.07745	1359.78784	-764.12744	285.89914	875.26007				-784.93323	-56.57242	727.98218	-694.13074	-5.99896	800.95862	-697.03357	222.12793	812.42871	-806.46008	252.17924	630.25446	-753.80817	147.06636	570.76166	-796.10254	248.46481	570.13483	-723.76050	20.37741	524.79462	-823.21381	259.77905	492.49335	-733.61145	209.18033	536.39709	-772.13959	-66.91555	862.00543	-663.53754	-67.57853	161.94377	-717.41382	155.31444	220.13806	-775.39270	224.76799	202.08252	-621.87158	-77.34409	158.54427	-882.30280	296.39313	144.81129	-676.93671	54.72753	160.43115	-604.30768	20.70637	166.67140	-677.31311	175.52327	160.54187	-595.55133	222.17723	173.63512	-667.50995	300.56903	159.22287	-629.53595	306.88342	161.49580	-560.58850	258.18054	165.62050	-527.95557	303.92078	146.41072	-192.92358	103.34735	1549.56409	-437.94608	281.02652	1380.45764	-517.96686	-72.83951	143.16975	-798.94592	175.25629	182.09802	-770.60522	-8.19012	205.62062	-797.20862	52.64476	174.78555	-893.15033	93.44125	1086.73218	-812.95245	-35.59609	481.08817	-560.05701	-36.64948	163.58327	-875.97589	-78.81084	141.28232				-781.12262	-27.98402	609.68719	-781.07257	-23.87522	563.98694	-723.33636	75.16572	219.56198				-790.38068	279.58942	710.70813	-753.77179	80.51959	568.22009	
229	4.560	-415.73331	-73.12456	1354.24658	-765.79303	285.92249	875.28754				-786.68671	-57.92675	728.43884	-695.05511	-5.98150	800.80853	-698.65631	221.94984	812.22754	-807.14984	252.62019	630.39801	-754.28119	147.16911	570.64349	-796.50031	248.14194	569.88257	-724.06042	20.52254	525.06592	-823.84979	260.04138	492.39890	-734.48395	209.21764	536.16455	-773.28363	-66.99404	861.71002	-663.50348	-67.55973	161.95346	-717.67218	155.61880	219.92104	-775.48450	224.74937	202.03416	-621.74683	-77.42657	158.33749	-882.25214	296.35190	144.68059	-677.05048	54.81271	160.54297	-604.59668	20.69218	166.60411	-677.12469	175.70712	160.69888	-595.55841	221.84874	173.19127	-667.51691	300.60760	158.85193	-629.59430	306.76935	161.43687	-560.54901	258.23578	165.31448	-527.99768	304.02539	146.65077	-189.73094	103.27737	1542.81226	-434.90088	280.31442	1375.21167	-518.04150	-72.73696	143.10960	-798.97388	175.43469	182.32823	-770.66064	-8.35968	205.55829	-797.19678	52.45662	174.82570	-893.82355	93.09628	1087.30542	-813.15430	-35.43579	480.71268	-560.25824	-36.52377	163.55421	-876.01788	-78.74021	141.33287				-782.33063	-28.16471	609.74982	-781.96912	-24.19741	563.92682	-723.56909	74.99419	219.45842				-791.53943	279.49869	710.49536	-754.43091	80.20759	568.40320	
230	4.580	-412.91324	-73.32586	1349.02551	-767.31940	286.16708	874.73181				-788.07721	-57.26093	727.55463	-696.10706	-6.17883	800.80383	-700.15302	222.43047	811.74359	-808.26831	252.49382	630.23767	-755.57855	146.91928	570.39124	-797.95154	248.25206	569.78186	-725.45367	20.30468	524.60229	-824.16022	259.84103	492.52039	-735.59326	209.44667	536.28741	-774.66998	-67.07250	861.80487	-663.59674	-67.82535	161.96503	-717.52515	155.63782	220.25807	-775.48450	224.74937	202.03416	-621.62225	-77.25507	158.43613	-882.48578	296.13718	144.66689	-677.05048	54.81271	160.54297	-604.38013	20.70833	166.60748	-677.26685	176.02599	160.39868	-595.68976	222.09253	173.38867	-667.28510	300.20920	158.97903	-629.54535	306.99515	161.55568	-560.60419	258.25510	165.55681	-527.96698	304.29382	146.48035	-185.62137	103.51072	1536.91431	-431.78177	280.48593	1370.22241	-517.92761	-72.70802	143.02107	-798.95703	175.54213	182.31068	-770.59338	-8.24656	205.56580	-797.24744	52.53917	174.65263	-895.33551	93.44701	1088.18628	-813.70898	-35.43912	480.26529	-560.15710	-36.45520	163.58392	-876.01788	-78.74021	141.33287				-783.12805	-27.99227	609.51843	-782.93182	-23.94637	563.76819	-723.45190	74.88914	219.57841				-792.82007	279.27170	710.19025	-754.94141	80.08852	568.26520	
231	4.600	-410.34390	-73.38536	1343.95898	-768.92896	286.14709	874.64404							-697.84033	-6.66873	801.17261	-701.58759	222.45430	811.48761	-809.26025	252.17393	629.78992	-756.55298	147.11380	570.24799	-798.93884	248.13901	569.50842	-725.92236	19.95419	524.85999	-824.95056	259.96121	492.47266	-736.17761	209.44676	536.34583	-776.21692	-67.46381	861.75977	-663.59503	-67.71229	162.02594	-718.09320	155.74156	220.14813	-775.48450	224.74937	202.03416	-621.86005	-77.65384	158.66171	-882.56006	296.11014	144.61603	-677.05048	54.81271	160.54297	-604.37317	20.75846	166.65602	-677.20886	175.60612	160.72992	-595.55865	222.15019	173.49644	-667.21997	300.26138	158.93271	-629.50439	306.72079	161.31517	-560.50403	258.27606	165.39687	-528.00879	304.02432	146.39519	-182.03450	102.96127	1530.14551	-429.38394	280.78683	1365.40881	-517.94611	-72.56589	142.97775	-798.97321	175.60381	182.36949	-770.67511	-8.30143	205.61224	-796.67291	52.49758	174.42844	-895.51257	93.35765	1088.35730	-814.54761	-35.47310	479.98059	-560.13116	-36.60328	163.52557	-876.04626	-78.37483	141.07983				-784.04260	-28.40133	609.64850	-784.24670	-23.81253	563.66229	-723.62738	74.68562	219.45531				-794.25153	279.68750	710.07147	-756.31323	80.02634	568.35736	
232	4.620	-407.78491	-73.30532	1338.78125	-770.63934	285.45517	874.04785	-791.25336	-57.78376	726.38660				-699.33655	-6.69485	801.01099	-703.11230	222.10594	811.24152	-810.51215	251.82701	629.29895	-757.32733	147.09251	570.24139	-799.53473	248.10777	569.87817	-726.34241	19.88629	524.92303	-826.03131	260.02533	491.91788	-736.85583	209.15744	536.26984	-778.16418	-67.78004	861.55426	-663.50159	-67.81293	162.09438	-718.03546	155.93336	220.13106	-775.48450	224.74937	202.03416	-621.79681	-77.63928	158.41084	-882.58276	296.29959	144.70831	-676.93671	54.72753	160.43115	-604.37317	20.75846	166.65602	-677.26190	175.94106	160.57841	-595.51807	222.07233	173.49875	-667.17877	300.12433	158.86787	-629.52283	306.93265	161.40155	-560.55798	258.24625	165.32124	-527.99658	304.05582	146.52022	-178.57735	102.97018	1523.54541	-426.70673	280.82986	1360.29199	-517.87079	-72.87058	143.01851	-799.02509	175.46956	182.28194	-770.66064	-8.35968	205.55829	-796.69965	52.56118	174.44276	-896.62225	93.16659	1089.48438	-815.26422	-35.97140	480.16812	-560.28278	-36.55231	163.41905	-876.04242	-78.50433	140.96730				-785.35797	-28.39888	609.39172	-785.23615	-23.71156	563.51532	-723.83087	74.53035	219.49260				-795.73273	279.29263	709.35114	-757.05756	79.89804	568.34332	
233	4.640	-406.16064	-72.37547	1332.36829	-772.21393	285.50275	874.24908	-793.12946	-58.54347	726.48438				-700.78302	-6.84438	800.89246	-704.50873	222.04016	811.09186	-811.55212	251.90521	629.19617	-758.43921	146.67645	570.39111	-800.59222	247.99034	569.70013	-727.55042	19.41420	524.90991	-826.51624	259.92499	491.90964	-738.03760	209.10980	536.34009	-779.66571	-68.73892	861.34039	-663.40002	-67.82088	161.98608	-717.97516	155.88794	220.29720	-775.53937	224.80939	202.09102	-621.88440	-77.59810	158.46782	-882.54150	296.22748	144.84912	-677.12701	54.61363	160.51659	-604.60541	20.58942	166.51027	-677.29517	175.72293	160.67715	-595.79852	222.21223	173.39833	-667.20404	300.28375	159.01949	-629.52283	306.93265	161.40155	-560.62708	258.14941	165.35580	-527.94086	304.11801	146.27614	-175.35439	103.15093	1517.04138	-424.62213	281.01163	1355.50635	-517.99487	-72.69820	143.12108	-799.08679	175.48883	182.22955	-770.84161	-8.28758	205.34042	-796.79895	52.32511	174.23662	-897.61169	92.79935	1089.92700	-815.79108	-36.48860	479.93164	-560.18707	-36.44544	163.38699	-876.06903	-78.57349	140.88538				-786.17334	-28.47842	608.75769	-785.47937	-24.90748	564.08759	-724.04669	74.58058	219.49101				-797.14032	279.37482	708.80188	-757.74365	79.68166	568.34625	
